<?xml version="1.0" encoding="UTF-8"?>
<svg version="1.1" xmlns="http://www.w3.org/2000/svg" width="1599" height="992">
<path d="M0 0 C0.68292114 -0.00133942 1.36584229 -0.00267883 2.06945801 -0.00405884 C13.64709734 0.00084895 24.84708126 0.81802891 36.1875 3.25 C37.15042969 3.45496094 38.11335938 3.65992187 39.10546875 3.87109375 C41.84532875 4.55499679 44.49987897 5.38137723 47.1875 6.25 C47.93080566 6.47671387 48.67411133 6.70342773 49.43994141 6.93701172 C66.68299658 12.20012475 80.96962951 19.67217585 96.1875 29.25 C97.04085938 29.75917969 97.89421875 30.26835938 98.7734375 30.79296875 C100.61093318 31.89224248 102.4059031 33.06226873 104.1875 34.25 C104.1875 34.91 104.1875 35.57 104.1875 36.25 C105.05568359 36.65605469 105.05568359 36.65605469 105.94140625 37.0703125 C117.67769091 43.23441331 128.98963045 54.94410686 137.1875 65.25 C137.74179687 65.9409375 138.29609375 66.631875 138.8671875 67.34375 C140.1875 69.25 140.1875 69.25 140.1875 71.25 C140.8475 71.25 141.5075 71.25 142.1875 71.25 C143.77658081 73.08966663 145.2384234 74.9287727 146.6875 76.875 C147.12964844 77.46112061 147.57179688 78.04724121 148.02734375 78.65112305 C149.4231692 80.51082321 150.80686328 82.37900257 152.1875 84.25 C152.61160156 84.82153809 153.03570313 85.39307617 153.47265625 85.98193359 C161.90191594 97.38719759 169.31853149 109.37946205 176.5625 121.5625 C178.73156511 125.14979999 180.95992354 128.69882678 183.1875 132.25 C186.42255286 137.40908318 189.6279375 142.58090471 192.73974609 147.81567383 C197.60105127 155.98971665 202.52745402 164.12435633 207.46386719 172.25317383 C208.55451605 174.04935133 209.64446822 175.84595026 210.734375 177.64257812 C211.45563746 178.83078484 212.17699139 180.01893604 212.8984375 181.20703125 C213.25386627 181.79249725 213.60929504 182.37796326 213.97549438 182.98117065 C215.75162986 185.90283199 217.53612441 188.81886083 219.33740234 191.72509766 C239.12539104 223.66677724 255.88600925 262.14467764 256.4609375 300.3671875 C256.47355621 301.13314743 256.48617493 301.89910736 256.49917603 302.6882782 C257.08069055 346.55278727 245.77074342 383.12854611 215.1875 415.25 C214.54296875 415.95898438 213.8984375 416.66796875 213.234375 417.3984375 C204.51635489 426.68502414 193.2814499 434.10693222 182.1875 440.25 C181.11757813 440.86230469 180.04765625 441.47460938 178.9453125 442.10546875 C160.1620635 452.66151511 139.6797912 458.90090461 119.1875 465.25 C118.02186523 465.61158203 116.85623047 465.97316406 115.65527344 466.34570312 C110.11160992 468.06222945 104.56429303 469.76565794 99.01171875 471.453125 C95.45393388 472.53896117 91.91620908 473.66171938 88.39453125 474.859375 C73.57114316 479.86981203 73.57114316 479.86981203 66.1875 478.25 C64.03567044 476.71020323 63.31350868 475.60899349 62.4375 473.11328125 C61.82027065 466.81561308 63.52175189 463.21898061 67.33886719 458.41723633 C69.66701305 455.65874622 72.04133905 452.94518134 74.44238281 450.25 C77.07852123 447.22884081 79.51310975 444.06679709 81.9375 440.875 C82.73671875 439.83601563 83.5359375 438.79703125 84.359375 437.7265625 C86.17939372 435.40903679 86.17939372 435.40903679 87.1875 433.25 C87.8475 433.25 88.5075 433.25 89.1875 433.25 C89.41308594 432.54875 89.63867188 431.8475 89.87109375 431.125 C91.46724791 427.63903721 93.7206463 425.07504842 96.25 422.25 C115.14997625 400.4198431 124.40874371 377.37272782 122.99609375 348.3125 C121.358282 328.34398431 115.14956902 309.089735 106.1875 291.25 C105.78015625 290.43112305 105.3728125 289.61224609 104.953125 288.76855469 C98.84252562 276.5703627 92.09294598 264.82914888 84.97900391 253.19433594 C82.94371123 249.84933325 80.9286531 246.49264404 78.91796875 243.1328125 C78.54431183 242.50848328 78.17065491 241.88415405 77.78567505 241.24090576 C77.01667124 239.95587042 76.24769983 238.67081568 75.47875977 237.38574219 C68.99587936 226.5560613 62.47479438 215.75045517 55.89428711 204.97973633 C53.45452631 200.98475809 51.02175428 196.98729194 48.640625 192.95703125 C44.32989358 185.66320123 39.78902286 178.63980869 34.83984375 171.76171875 C33.1875 169.25 33.1875 169.25 33.1875 167.25 C32.5275 167.25 31.8675 167.25 31.1875 167.25 C30.06689098 165.79289957 29.01911966 164.27980435 28 162.75 C24.22185659 157.41207262 20.03904094 152.63916596 15.5625 147.875 C14.61274292 146.85889648 14.61274292 146.85889648 13.64379883 145.82226562 C11.85247678 143.9348421 10.03463857 142.08273192 8.1875 140.25 C7.65286133 139.7147168 7.11822266 139.17943359 6.56738281 138.62792969 C4.90231017 137.01560281 4.90231017 137.01560281 2.1875 135.25 C-1.90138171 135.52384931 -3.86890955 136.80842822 -6.703125 139.6796875 C-7.40840332 140.38730225 -8.11368164 141.09491699 -8.84033203 141.82397461 C-9.57364746 142.58331299 -10.30696289 143.34265137 -11.0625 144.125 C-11.82030762 144.89787354 -12.57811523 145.67074707 -13.35888672 146.46704102 C-21.75916782 155.11714796 -29.0544371 164.26369152 -35.8125 174.25 C-36.53824219 175.31565186 -37.26398438 176.38130371 -38.01171875 177.47924805 C-44.15655172 186.55951331 -49.84556789 195.84763444 -55.375 205.3125 C-56.95609132 208.01381479 -58.54043547 210.71317397 -60.12890625 213.41015625 C-60.71014755 214.39757309 -60.71014755 214.39757309 -61.3031311 215.40493774 C-64.29682224 220.45694283 -67.45678062 225.38564555 -70.66557312 230.30282593 C-73.46944194 234.63246796 -75.96235002 239.07043302 -78.38183594 243.62255859 C-80.88207059 248.21428646 -83.68141521 252.62147085 -86.4375 257.0625 C-96.50907829 273.49104915 -106.29424577 290.05216636 -112.8125 308.25 C-113.08288086 309.00345703 -113.35326172 309.75691406 -113.63183594 310.53320312 C-122.8988248 336.88245062 -127.06637746 367.12224094 -114.8125 393.25 C-114.38066406 394.21550781 -113.94882812 395.18101562 -113.50390625 396.17578125 C-110.53875206 402.49983639 -107.14207824 407.73298306 -102.546875 412.99609375 C-100.74788789 415.33396664 -99.77211703 417.47396502 -98.8125 420.25 C-98.1525 420.25 -97.4925 420.25 -96.8125 420.25 C-95.4761595 421.86461736 -94.22100099 423.54648841 -93 425.25 C-88.69998702 431.15632413 -84.15086764 436.82641684 -79.5065918 442.46484375 C-76.76141213 445.80908734 -74.05546087 449.17932075 -71.41796875 452.609375 C-70.66809692 453.58342285 -70.66809692 453.58342285 -69.90307617 454.57714844 C-68.8125 456.25 -68.8125 456.25 -68.8125 458.25 C-68.1525 458.25 -67.4925 458.25 -66.8125 458.25 C-63.71107744 461.86832632 -61.92757634 465.26363135 -61.375 470 C-61.77301025 472.95664755 -62.12708798 474.81551598 -63.8125 477.25 C-70.16053764 480.42401882 -78.54963668 477.85615252 -84.9296875 475.828125 C-85.77257828 475.57220581 -86.61546906 475.31628662 -87.48390198 475.0526123 C-90.22313214 474.21621188 -92.95532082 473.35912826 -95.6875 472.5 C-97.60275922 471.90727384 -99.51820783 471.31515936 -101.43383789 470.72363281 C-107.23484813 468.92446597 -113.02460562 467.09085074 -118.8125 465.25 C-119.68658508 464.97317383 -120.56067017 464.69634766 -121.46124268 464.41113281 C-158.4972763 452.67540214 -158.4972763 452.67540214 -174.8125 444.25 C-175.46250977 443.91548828 -176.11251953 443.58097656 -176.78222656 443.23632812 C-184.39468572 439.24940464 -191.32630007 434.61281905 -198.09375 429.328125 C-200.01377742 427.86051783 -201.9912081 426.46659914 -204.00390625 425.12890625 C-207.0367583 423.09997463 -209.29576081 420.88950696 -211.8125 418.25 C-212.32425781 417.75886719 -212.83601562 417.26773437 -213.36328125 416.76171875 C-218.66823345 411.65189123 -223.27963208 406.04785431 -227.8125 400.25 C-228.39902344 399.50363281 -228.98554687 398.75726563 -229.58984375 397.98828125 C-253.79063845 365.35991568 -260.15506076 323.0083976 -254.36328125 283.48608398 C-249.02392461 251.47628967 -236.59715229 220.9115931 -219.8125 193.25 C-219.31911133 192.43128418 -218.82572266 191.61256836 -218.31738281 190.76904297 C-211.46599189 179.4073891 -204.50650486 168.11277268 -197.51269531 156.83837891 C-193.94812573 151.09108486 -190.40171613 145.33310221 -186.875 139.5625 C-186.45065674 138.86858154 -186.02631348 138.17466309 -185.58911133 137.4597168 C-183.35501996 133.79949748 -181.13907919 130.12908965 -178.9375 126.44921875 C-166.50582185 105.71652224 -153.66888385 85.55019928 -137.8125 67.25 C-137.25820313 66.58484375 -136.70390625 65.9196875 -136.1328125 65.234375 C-126.26198758 53.54653256 -115.13784351 43.27816312 -102.8125 34.25 C-101.22501953 33.08017578 -101.22501953 33.08017578 -99.60546875 31.88671875 C-76.89686018 15.67428427 -51.48584823 5.07365348 -23.8125 1.25 C-23.16224854 1.1557373 -22.51199707 1.06147461 -21.84204102 0.96435547 C-14.58721977 0.01958084 -7.30604473 0.0084739 0 0 Z " fill="#F4283A" transform="translate(758.8125,66.75)"/>
<path d="M0 0 C0.68292114 -0.00133942 1.36584229 -0.00267883 2.06945801 -0.00405884 C13.64709734 0.00084895 24.84708126 0.81802891 36.1875 3.25 C37.15042969 3.45496094 38.11335938 3.65992187 39.10546875 3.87109375 C41.84532875 4.55499679 44.49987897 5.38137723 47.1875 6.25 C47.93080566 6.47671387 48.67411133 6.70342773 49.43994141 6.93701172 C66.68299658 12.20012475 80.96962951 19.67217585 96.1875 29.25 C97.04085938 29.75917969 97.89421875 30.26835938 98.7734375 30.79296875 C100.61093318 31.89224248 102.4059031 33.06226873 104.1875 34.25 C104.1875 34.91 104.1875 35.57 104.1875 36.25 C105.05568359 36.65605469 105.05568359 36.65605469 105.94140625 37.0703125 C117.67769091 43.23441331 128.98963045 54.94410686 137.1875 65.25 C137.74179687 65.9409375 138.29609375 66.631875 138.8671875 67.34375 C140.1875 69.25 140.1875 69.25 140.1875 71.25 C140.8475 71.25 141.5075 71.25 142.1875 71.25 C143.77658081 73.08966663 145.2384234 74.9287727 146.6875 76.875 C147.12964844 77.46112061 147.57179688 78.04724121 148.02734375 78.65112305 C149.4231692 80.51082321 150.80686328 82.37900257 152.1875 84.25 C152.61160156 84.82153809 153.03570313 85.39307617 153.47265625 85.98193359 C161.90191594 97.38719759 169.31853149 109.37946205 176.5625 121.5625 C178.73156511 125.14979999 180.95992354 128.69882678 183.1875 132.25 C186.42255286 137.40908318 189.6279375 142.58090471 192.73974609 147.81567383 C197.60105127 155.98971665 202.52745402 164.12435633 207.46386719 172.25317383 C208.55451605 174.04935133 209.64446822 175.84595026 210.734375 177.64257812 C211.45563746 178.83078484 212.17699139 180.01893604 212.8984375 181.20703125 C213.25386627 181.79249725 213.60929504 182.37796326 213.97549438 182.98117065 C215.75162986 185.90283199 217.53612441 188.81886083 219.33740234 191.72509766 C239.12539104 223.66677724 255.88600925 262.14467764 256.4609375 300.3671875 C256.47355621 301.13314743 256.48617493 301.89910736 256.49917603 302.6882782 C257.08069055 346.55278727 245.77074342 383.12854611 215.1875 415.25 C214.54296875 415.95898438 213.8984375 416.66796875 213.234375 417.3984375 C204.51635489 426.68502414 193.2814499 434.10693222 182.1875 440.25 C181.11757813 440.86230469 180.04765625 441.47460938 178.9453125 442.10546875 C160.1620635 452.66151511 139.6797912 458.90090461 119.1875 465.25 C118.02186523 465.61158203 116.85623047 465.97316406 115.65527344 466.34570312 C110.11160992 468.06222945 104.56429303 469.76565794 99.01171875 471.453125 C95.45393388 472.53896117 91.91620908 473.66171938 88.39453125 474.859375 C73.57114316 479.86981203 73.57114316 479.86981203 66.1875 478.25 C64.03567044 476.71020323 63.31350868 475.60899349 62.4375 473.11328125 C61.82027065 466.81561308 63.52175189 463.21898061 67.33886719 458.41723633 C69.66701305 455.65874622 72.04133905 452.94518134 74.44238281 450.25 C77.07852123 447.22884081 79.51310975 444.06679709 81.9375 440.875 C82.73671875 439.83601563 83.5359375 438.79703125 84.359375 437.7265625 C86.17939372 435.40903679 86.17939372 435.40903679 87.1875 433.25 C87.8475 433.25 88.5075 433.25 89.1875 433.25 C89.41308594 432.54875 89.63867188 431.8475 89.87109375 431.125 C91.46724791 427.63903721 93.7206463 425.07504842 96.25 422.25 C115.14997625 400.4198431 124.40874371 377.37272782 122.99609375 348.3125 C121.358282 328.34398431 115.14956902 309.089735 106.1875 291.25 C105.78015625 290.43112305 105.3728125 289.61224609 104.953125 288.76855469 C98.84252562 276.5703627 92.09294598 264.82914888 84.97900391 253.19433594 C82.94371123 249.84933325 80.9286531 246.49264404 78.91796875 243.1328125 C78.54431183 242.50848328 78.17065491 241.88415405 77.78567505 241.24090576 C77.01667124 239.95587042 76.24769983 238.67081568 75.47875977 237.38574219 C68.99587936 226.5560613 62.47479438 215.75045517 55.89428711 204.97973633 C53.45452631 200.98475809 51.02175428 196.98729194 48.640625 192.95703125 C44.32989358 185.66320123 39.78902286 178.63980869 34.83984375 171.76171875 C33.1875 169.25 33.1875 169.25 33.1875 167.25 C32.5275 167.25 31.8675 167.25 31.1875 167.25 C30.06689098 165.79289957 29.01911966 164.27980435 28 162.75 C24.22185659 157.41207262 20.03904094 152.63916596 15.5625 147.875 C14.61274292 146.85889648 14.61274292 146.85889648 13.64379883 145.82226562 C11.85247678 143.9348421 10.03463857 142.08273192 8.1875 140.25 C7.65286133 139.7147168 7.11822266 139.17943359 6.56738281 138.62792969 C4.90231017 137.01560281 4.90231017 137.01560281 2.1875 135.25 C-1.90138171 135.52384931 -3.86890955 136.80842822 -6.703125 139.6796875 C-7.40840332 140.38730225 -8.11368164 141.09491699 -8.84033203 141.82397461 C-9.57364746 142.58331299 -10.30696289 143.34265137 -11.0625 144.125 C-11.82030762 144.89787354 -12.57811523 145.67074707 -13.35888672 146.46704102 C-21.75916782 155.11714796 -29.0544371 164.26369152 -35.8125 174.25 C-36.53824219 175.31565186 -37.26398438 176.38130371 -38.01171875 177.47924805 C-44.15655172 186.55951331 -49.84556789 195.84763444 -55.375 205.3125 C-56.95609132 208.01381479 -58.54043547 210.71317397 -60.12890625 213.41015625 C-60.71014755 214.39757309 -60.71014755 214.39757309 -61.3031311 215.40493774 C-64.29682224 220.45694283 -67.45678062 225.38564555 -70.66557312 230.30282593 C-73.46944194 234.63246796 -75.96235002 239.07043302 -78.38183594 243.62255859 C-80.88207059 248.21428646 -83.68141521 252.62147085 -86.4375 257.0625 C-96.50907829 273.49104915 -106.29424577 290.05216636 -112.8125 308.25 C-113.08288086 309.00345703 -113.35326172 309.75691406 -113.63183594 310.53320312 C-122.8988248 336.88245062 -127.06637746 367.12224094 -114.8125 393.25 C-114.38066406 394.21550781 -113.94882812 395.18101562 -113.50390625 396.17578125 C-110.53875206 402.49983639 -107.14207824 407.73298306 -102.546875 412.99609375 C-100.74788789 415.33396664 -99.77211703 417.47396502 -98.8125 420.25 C-98.1525 420.25 -97.4925 420.25 -96.8125 420.25 C-95.4761595 421.86461736 -94.22100099 423.54648841 -93 425.25 C-88.69998702 431.15632413 -84.15086764 436.82641684 -79.5065918 442.46484375 C-76.76141213 445.80908734 -74.05546087 449.17932075 -71.41796875 452.609375 C-70.66809692 453.58342285 -70.66809692 453.58342285 -69.90307617 454.57714844 C-68.8125 456.25 -68.8125 456.25 -68.8125 458.25 C-68.1525 458.25 -67.4925 458.25 -66.8125 458.25 C-63.71107744 461.86832632 -61.92757634 465.26363135 -61.375 470 C-61.77301025 472.95664755 -62.12708798 474.81551598 -63.8125 477.25 C-70.16053764 480.42401882 -78.54963668 477.85615252 -84.9296875 475.828125 C-85.77257828 475.57220581 -86.61546906 475.31628662 -87.48390198 475.0526123 C-90.22313214 474.21621188 -92.95532082 473.35912826 -95.6875 472.5 C-97.60275922 471.90727384 -99.51820783 471.31515936 -101.43383789 470.72363281 C-107.23484813 468.92446597 -113.02460562 467.09085074 -118.8125 465.25 C-119.68658508 464.97317383 -120.56067017 464.69634766 -121.46124268 464.41113281 C-158.4972763 452.67540214 -158.4972763 452.67540214 -174.8125 444.25 C-175.46250977 443.91548828 -176.11251953 443.58097656 -176.78222656 443.23632812 C-184.39468572 439.24940464 -191.32630007 434.61281905 -198.09375 429.328125 C-200.01377742 427.86051783 -201.9912081 426.46659914 -204.00390625 425.12890625 C-207.0367583 423.09997463 -209.29576081 420.88950696 -211.8125 418.25 C-212.32425781 417.75886719 -212.83601562 417.26773437 -213.36328125 416.76171875 C-218.66823345 411.65189123 -223.27963208 406.04785431 -227.8125 400.25 C-228.39902344 399.50363281 -228.98554687 398.75726563 -229.58984375 397.98828125 C-253.79063845 365.35991568 -260.15506076 323.0083976 -254.36328125 283.48608398 C-249.02392461 251.47628967 -236.59715229 220.9115931 -219.8125 193.25 C-219.31911133 192.43128418 -218.82572266 191.61256836 -218.31738281 190.76904297 C-211.46599189 179.4073891 -204.50650486 168.11277268 -197.51269531 156.83837891 C-193.94812573 151.09108486 -190.40171613 145.33310221 -186.875 139.5625 C-186.45065674 138.86858154 -186.02631348 138.17466309 -185.58911133 137.4597168 C-183.35501996 133.79949748 -181.13907919 130.12908965 -178.9375 126.44921875 C-166.50582185 105.71652224 -153.66888385 85.55019928 -137.8125 67.25 C-137.25820313 66.58484375 -136.70390625 65.9196875 -136.1328125 65.234375 C-126.26198758 53.54653256 -115.13784351 43.27816312 -102.8125 34.25 C-101.22501953 33.08017578 -101.22501953 33.08017578 -99.60546875 31.88671875 C-76.89686018 15.67428427 -51.48584823 5.07365348 -23.8125 1.25 C-23.16224854 1.1557373 -22.51199707 1.06147461 -21.84204102 0.96435547 C-14.58721977 0.01958084 -7.30604473 0.0084739 0 0 Z M-34.8125 30.25 C-35.5770752 30.47042969 -36.34165039 30.69085938 -37.12939453 30.91796875 C-68.71553777 40.36569349 -99.31639289 61.12333259 -119.01953125 87.83203125 C-120.42021082 89.72096513 -121.84877504 91.55729965 -123.32421875 93.38671875 C-135.55868906 108.57785272 -145.44653601 125.11469215 -155.5050354 141.7857666 C-159.23640063 147.9638301 -163.02135961 154.10846557 -166.8125 160.25 C-174.59487967 172.87268734 -182.31787803 185.53017618 -189.98095703 198.22558594 C-191.53730554 200.79557331 -193.10675792 203.3566301 -194.68359375 205.9140625 C-199.66430728 214.0695942 -204.0152954 222.46478965 -208.1875 231.0625 C-208.68805908 232.08883545 -209.18861816 233.1151709 -209.7043457 234.17260742 C-212.9780062 241.05144535 -215.53142973 247.98735143 -217.8125 255.25 C-218.32926131 256.77222178 -218.84929021 258.29334543 -219.375 259.8125 C-221.05970964 264.91216161 -222.51922982 270.03712637 -223.8125 275.25 C-224.09480469 276.28382813 -224.37710938 277.31765625 -224.66796875 278.3828125 C-226.91290414 287.97385104 -227.13614906 297.50701677 -227.1875 307.3125 C-227.19526459 307.9864682 -227.20302917 308.6604364 -227.21102905 309.35482788 C-227.30241038 319.4323357 -226.05809591 328.4846553 -223.8125 338.25 C-223.41652223 340.22913777 -223.02066258 342.20829919 -222.625 344.1875 C-217.72528991 363.10088868 -205.21726492 379.5427298 -191.8125 393.25 C-190.89017578 394.26513672 -190.89017578 394.26513672 -189.94921875 395.30078125 C-178.39715852 407.77012666 -161.12137773 416.18470946 -145.6875 422.75 C-144.8939209 423.08845947 -144.1003418 423.42691895 -143.28271484 423.77563477 C-139.13053054 425.48527961 -135.31170081 426.73252003 -130.8125 427.25 C-131.21339844 426.65316406 -131.61429688 426.05632812 -132.02734375 425.44140625 C-146.75013193 402.9732964 -154.47589931 380.46288708 -154.375 353.5 C-154.3745166 352.69762909 -154.3740332 351.89525818 -154.37353516 351.068573 C-154.20289944 310.01087787 -136.36867235 273.87823578 -115.15385437 239.68783569 C-111.45407321 233.70729845 -107.90310845 227.64331169 -104.36785889 221.56451416 C-96.33626402 207.75552198 -88.10851276 194.07355256 -79.765625 180.45068359 C-77.93463725 177.45015241 -76.12105613 174.43986863 -74.3125 171.42578125 C-57.72163899 143.93495317 -37.4332339 119.77260003 -11.4375 100.75 C-10.85452148 100.31623047 -10.27154297 99.88246094 -9.67089844 99.43554688 C-3.78159149 95.20610799 -3.78159149 95.20610799 0.1875 95.25 C3.16796875 96.83984375 3.16796875 96.83984375 6.375 99.1875 C6.94669922 99.60281982 7.51839844 100.01813965 8.10742188 100.44604492 C9.81461528 101.69663562 11.50296006 102.96911686 13.1875 104.25 C14.04988281 104.89710938 14.91226563 105.54421875 15.80078125 106.2109375 C29.74923175 117.03183036 41.91235002 129.54573813 52.6875 143.5 C53.18507813 144.14219482 53.68265625 144.78438965 54.1953125 145.44604492 C62.64202069 156.57431223 70.03678962 168.40959746 77.08892822 180.45495605 C79.13173233 183.9430685 81.18982206 187.42215951 83.24609375 190.90234375 C83.66165527 191.60638336 84.0772168 192.31042297 84.50537109 193.03579712 C88.21419621 199.31248665 91.97771487 205.55490744 95.76763916 211.78289795 C96.81482618 213.5038228 97.8603968 215.22572175 98.90576172 216.94775391 C102.06465906 222.14688 105.23659091 227.33724107 108.44276428 232.50737 C135.00833955 275.36087756 135.00833955 275.36087756 141.50146484 297.00634766 C142.29667206 299.60704314 143.15795238 302.1822706 144.01953125 304.76171875 C152.16323982 329.58309825 155.87077306 359.85170869 148.1875 385.25 C147.88948486 386.29124023 147.88948486 386.29124023 147.58544922 387.35351562 C143.62438359 401.06147307 138.02131064 413.93168011 129.1875 425.25 C129.5175 425.91 129.8475 426.57 130.1875 427.25 C140.15627017 424.38020253 149.06989652 420.09457066 158.1875 415.25 C158.79916016 414.93015137 159.41082031 414.61030273 160.04101562 414.28076172 C186.41122088 400.3967766 207.95218087 378.09493197 217.9375 349.6875 C218.37464748 348.21425622 218.78824922 346.73396225 219.1875 345.25 C219.52523438 344.05246094 219.86296875 342.85492188 220.2109375 341.62109375 C223.16328831 330.9625848 224.37411402 321.2481581 224.37280273 310.19140625 C224.37497254 308.15082395 224.39312467 306.11079836 224.41210938 304.0703125 C224.46689339 291.34219107 222.53087049 279.49875363 219.1875 267.25 C218.72150391 265.51169922 218.72150391 265.51169922 218.24609375 263.73828125 C210.53999654 235.78479138 195.77701642 211.01817081 180.52734375 186.61328125 C177.09886323 181.12308613 173.73280298 175.5961214 170.375 170.0625 C163.98513784 159.5430742 157.54927188 149.05256101 151.0859375 138.578125 C148.5778485 134.51316298 146.083091 130.44060067 143.6015625 126.359375 C137.86751072 116.95641831 132.07473842 107.8623402 125.1875 99.25 C124.19169922 97.98542969 124.19169922 97.98542969 123.17578125 96.6953125 C121.85911601 95.03460703 120.53367622 93.38081761 119.19921875 91.734375 C117.83352215 90.047806 116.48237041 88.34937559 115.14453125 86.640625 C90.73894698 55.87803063 54.57019392 32.35208059 15.1875 27.25 C9.71463962 26.78619691 4.23792599 26.81060889 -1.25 26.875 C-2.33092422 26.88247757 -2.33092422 26.88247757 -3.4336853 26.8901062 C-14.11428133 26.97655346 -24.4876279 27.24603428 -34.8125 30.25 Z " fill="#FCFBFB" transform="translate(758.8125,66.75)"/>
<path d="M0 0 C0.65663635 -0.00173218 1.31327271 -0.00346436 1.98980713 -0.00524902 C16.8938836 0.01194294 36.1799013 1.15426653 47.55078125 12.14453125 C48.37964844 13.16933594 49.20851563 14.19414062 50.0625 15.25 C50.52414551 15.81912109 50.98579102 16.38824219 51.46142578 16.97460938 C52.9112154 18.78058248 54.33347392 20.60535529 55.75 22.4375 C56.42119873 23.29480713 56.42119873 23.29480713 57.10595703 24.16943359 C65.54863303 35.02606668 72.64089709 46.68360776 79.75 58.4375 C81.13245895 60.71505948 82.51524202 62.99241929 83.8984375 65.26953125 C86.08440439 68.86909253 88.2695195 72.46916255 90.45166016 76.07104492 C94.68098972 83.04958653 98.94255453 90.00683044 103.25 96.9375 C137.47278124 152.11477066 137.47278124 152.11477066 145.75 174.4375 C146.11496582 175.41251465 146.11496582 175.41251465 146.48730469 176.40722656 C150.04414878 185.96414504 152.90138755 195.4132039 154.75 205.4375 C154.92297607 206.37078125 155.09595215 207.3040625 155.27416992 208.265625 C156.73044902 216.81826646 157.08394933 225.14697115 157.0625 233.8125 C157.07861328 235.10671875 157.09472656 236.4009375 157.11132812 237.734375 C157.11598132 247.05937131 155.82821472 255.3961329 153.75 264.4375 C153.35402228 266.41663778 152.9581625 268.39579917 152.5625 270.375 C145.39021504 298.06076317 122.8949335 322.71405973 98.99560547 337.16113281 C87.63044587 343.62091259 74.56685474 350.52349822 61.75 353.4375 C63.08132675 349.78122214 64.73578735 346.82428498 66.9375 343.625 C78.97754539 324.98801307 84.17033326 303.84039144 84 281.8125 C83.99285477 280.82056641 83.99285477 280.82056641 83.98556519 279.80859375 C83.9480508 275.35035454 83.86221039 270.89457197 83.75 266.4375 C83.73018066 265.56254883 83.71036133 264.68759766 83.68994141 263.78613281 C82.46825061 227.97580754 62.50896767 193.7676008 44.23617554 164.13098145 C40.23022118 157.61980881 36.33580796 151.04374542 32.44674683 144.46231079 C6.6446812 98.86666124 6.6446812 98.86666124 -25.25390625 57.5859375 C-27.07385246 55.62709128 -28.78717373 53.61454125 -30.5 51.5625 C-40.64329307 40.03287986 -52.69167679 31.14754419 -65.25 22.4375 C-64.65096114 18.7499101 -64.32659541 18.49457109 -61.0625 16.0625 C-49.83571171 9.59618731 -38.01687032 5.92782338 -25.49267578 2.97290039 C-24.04784451 2.6279717 -22.60789824 2.26152271 -21.17529297 1.86889648 C-14.17439621 0.06072322 -7.20030627 0.01276488 0 0 Z " fill="#FDC83E" transform="translate(826.25,140.5625)"/>
<path d="M0 0 C0.68292114 -0.00133942 1.36584229 -0.00267883 2.06945801 -0.00405884 C13.64709734 0.00084895 24.84708126 0.81802891 36.1875 3.25 C37.15042969 3.45496094 38.11335938 3.65992187 39.10546875 3.87109375 C41.84532875 4.55499679 44.49987897 5.38137723 47.1875 6.25 C47.93080566 6.47671387 48.67411133 6.70342773 49.43994141 6.93701172 C66.68299658 12.20012475 80.96962951 19.67217585 96.1875 29.25 C97.04085938 29.75917969 97.89421875 30.26835938 98.7734375 30.79296875 C100.61093318 31.89224248 102.4059031 33.06226873 104.1875 34.25 C104.1875 34.91 104.1875 35.57 104.1875 36.25 C105.05568359 36.65605469 105.05568359 36.65605469 105.94140625 37.0703125 C117.67769091 43.23441331 128.98963045 54.94410686 137.1875 65.25 C137.74179687 65.9409375 138.29609375 66.631875 138.8671875 67.34375 C140.1875 69.25 140.1875 69.25 140.1875 71.25 C140.8475 71.25 141.5075 71.25 142.1875 71.25 C143.77658081 73.08966663 145.2384234 74.9287727 146.6875 76.875 C147.12964844 77.46112061 147.57179688 78.04724121 148.02734375 78.65112305 C149.4231692 80.51082321 150.80686328 82.37900257 152.1875 84.25 C152.61160156 84.82153809 153.03570313 85.39307617 153.47265625 85.98193359 C161.90191594 97.38719759 169.31853149 109.37946205 176.5625 121.5625 C178.73156511 125.14979999 180.95992354 128.69882678 183.1875 132.25 C186.42255286 137.40908318 189.6279375 142.58090471 192.73974609 147.81567383 C197.60105127 155.98971665 202.52745402 164.12435633 207.46386719 172.25317383 C208.55451605 174.04935133 209.64446822 175.84595026 210.734375 177.64257812 C211.45563746 178.83078484 212.17699139 180.01893604 212.8984375 181.20703125 C213.25386627 181.79249725 213.60929504 182.37796326 213.97549438 182.98117065 C215.75162986 185.90283199 217.53612441 188.81886083 219.33740234 191.72509766 C239.12539104 223.66677724 255.88600925 262.14467764 256.4609375 300.3671875 C256.47355621 301.13314743 256.48617493 301.89910736 256.49917603 302.6882782 C257.08069055 346.55278727 245.77074342 383.12854611 215.1875 415.25 C214.54296875 415.95898438 213.8984375 416.66796875 213.234375 417.3984375 C204.51635489 426.68502414 193.2814499 434.10693222 182.1875 440.25 C181.11757813 440.86230469 180.04765625 441.47460938 178.9453125 442.10546875 C160.1620635 452.66151511 139.6797912 458.90090461 119.1875 465.25 C118.02186523 465.61158203 116.85623047 465.97316406 115.65527344 466.34570312 C110.11160992 468.06222945 104.56429303 469.76565794 99.01171875 471.453125 C95.45393388 472.53896117 91.91620908 473.66171938 88.39453125 474.859375 C73.57114316 479.86981203 73.57114316 479.86981203 66.1875 478.25 C64.03567044 476.71020323 63.31350868 475.60899349 62.4375 473.11328125 C61.82027065 466.81561308 63.52175189 463.21898061 67.33886719 458.41723633 C69.66701305 455.65874622 72.04133905 452.94518134 74.44238281 450.25 C77.07852123 447.22884081 79.51310975 444.06679709 81.9375 440.875 C82.73671875 439.83601563 83.5359375 438.79703125 84.359375 437.7265625 C86.17939372 435.40903679 86.17939372 435.40903679 87.1875 433.25 C87.8475 433.25 88.5075 433.25 89.1875 433.25 C89.41308594 432.54875 89.63867188 431.8475 89.87109375 431.125 C91.46724791 427.63903721 93.7206463 425.07504842 96.25 422.25 C115.14997625 400.4198431 124.40874371 377.37272782 122.99609375 348.3125 C121.358282 328.34398431 115.14956902 309.089735 106.1875 291.25 C105.78015625 290.43112305 105.3728125 289.61224609 104.953125 288.76855469 C98.84252562 276.5703627 92.09294598 264.82914888 84.97900391 253.19433594 C82.94371123 249.84933325 80.9286531 246.49264404 78.91796875 243.1328125 C78.54431183 242.50848328 78.17065491 241.88415405 77.78567505 241.24090576 C77.01667124 239.95587042 76.24769983 238.67081568 75.47875977 237.38574219 C68.99587936 226.5560613 62.47479438 215.75045517 55.89428711 204.97973633 C53.45452631 200.98475809 51.02175428 196.98729194 48.640625 192.95703125 C44.32989358 185.66320123 39.78902286 178.63980869 34.83984375 171.76171875 C33.1875 169.25 33.1875 169.25 33.1875 167.25 C32.5275 167.25 31.8675 167.25 31.1875 167.25 C30.06689098 165.79289957 29.01911966 164.27980435 28 162.75 C24.22185659 157.41207262 20.03904094 152.63916596 15.5625 147.875 C14.61274292 146.85889648 14.61274292 146.85889648 13.64379883 145.82226562 C11.85247678 143.9348421 10.03463857 142.08273192 8.1875 140.25 C7.65286133 139.7147168 7.11822266 139.17943359 6.56738281 138.62792969 C4.90231017 137.01560281 4.90231017 137.01560281 2.1875 135.25 C-1.90138171 135.52384931 -3.86890955 136.80842822 -6.703125 139.6796875 C-7.40840332 140.38730225 -8.11368164 141.09491699 -8.84033203 141.82397461 C-9.57364746 142.58331299 -10.30696289 143.34265137 -11.0625 144.125 C-11.82030762 144.89787354 -12.57811523 145.67074707 -13.35888672 146.46704102 C-21.75916782 155.11714796 -29.0544371 164.26369152 -35.8125 174.25 C-36.53824219 175.31565186 -37.26398438 176.38130371 -38.01171875 177.47924805 C-44.15655172 186.55951331 -49.84556789 195.84763444 -55.375 205.3125 C-56.95609132 208.01381479 -58.54043547 210.71317397 -60.12890625 213.41015625 C-60.71014755 214.39757309 -60.71014755 214.39757309 -61.3031311 215.40493774 C-64.29682224 220.45694283 -67.45678062 225.38564555 -70.66557312 230.30282593 C-73.46944194 234.63246796 -75.96235002 239.07043302 -78.38183594 243.62255859 C-80.88207059 248.21428646 -83.68141521 252.62147085 -86.4375 257.0625 C-96.50907829 273.49104915 -106.29424577 290.05216636 -112.8125 308.25 C-113.08288086 309.00345703 -113.35326172 309.75691406 -113.63183594 310.53320312 C-122.8988248 336.88245062 -127.06637746 367.12224094 -114.8125 393.25 C-114.38066406 394.21550781 -113.94882812 395.18101562 -113.50390625 396.17578125 C-110.53875206 402.49983639 -107.14207824 407.73298306 -102.546875 412.99609375 C-100.74788789 415.33396664 -99.77211703 417.47396502 -98.8125 420.25 C-98.1525 420.25 -97.4925 420.25 -96.8125 420.25 C-95.4761595 421.86461736 -94.22100099 423.54648841 -93 425.25 C-88.69998702 431.15632413 -84.15086764 436.82641684 -79.5065918 442.46484375 C-76.76141213 445.80908734 -74.05546087 449.17932075 -71.41796875 452.609375 C-70.66809692 453.58342285 -70.66809692 453.58342285 -69.90307617 454.57714844 C-68.8125 456.25 -68.8125 456.25 -68.8125 458.25 C-68.1525 458.25 -67.4925 458.25 -66.8125 458.25 C-63.71107744 461.86832632 -61.92757634 465.26363135 -61.375 470 C-61.77301025 472.95664755 -62.12708798 474.81551598 -63.8125 477.25 C-70.16053764 480.42401882 -78.54963668 477.85615252 -84.9296875 475.828125 C-85.77257828 475.57220581 -86.61546906 475.31628662 -87.48390198 475.0526123 C-90.22313214 474.21621188 -92.95532082 473.35912826 -95.6875 472.5 C-97.60275922 471.90727384 -99.51820783 471.31515936 -101.43383789 470.72363281 C-107.23484813 468.92446597 -113.02460562 467.09085074 -118.8125 465.25 C-119.68658508 464.97317383 -120.56067017 464.69634766 -121.46124268 464.41113281 C-158.4972763 452.67540214 -158.4972763 452.67540214 -174.8125 444.25 C-175.46250977 443.91548828 -176.11251953 443.58097656 -176.78222656 443.23632812 C-184.39468572 439.24940464 -191.32630007 434.61281905 -198.09375 429.328125 C-200.01377742 427.86051783 -201.9912081 426.46659914 -204.00390625 425.12890625 C-207.0367583 423.09997463 -209.29576081 420.88950696 -211.8125 418.25 C-212.32425781 417.75886719 -212.83601562 417.26773437 -213.36328125 416.76171875 C-218.66823345 411.65189123 -223.27963208 406.04785431 -227.8125 400.25 C-228.39902344 399.50363281 -228.98554687 398.75726563 -229.58984375 397.98828125 C-253.79063845 365.35991568 -260.15506076 323.0083976 -254.36328125 283.48608398 C-249.02392461 251.47628967 -236.59715229 220.9115931 -219.8125 193.25 C-219.31911133 192.43128418 -218.82572266 191.61256836 -218.31738281 190.76904297 C-211.46599189 179.4073891 -204.50650486 168.11277268 -197.51269531 156.83837891 C-193.94812573 151.09108486 -190.40171613 145.33310221 -186.875 139.5625 C-186.45065674 138.86858154 -186.02631348 138.17466309 -185.58911133 137.4597168 C-183.35501996 133.79949748 -181.13907919 130.12908965 -178.9375 126.44921875 C-166.50582185 105.71652224 -153.66888385 85.55019928 -137.8125 67.25 C-137.25820313 66.58484375 -136.70390625 65.9196875 -136.1328125 65.234375 C-126.26198758 53.54653256 -115.13784351 43.27816312 -102.8125 34.25 C-101.22501953 33.08017578 -101.22501953 33.08017578 -99.60546875 31.88671875 C-76.89686018 15.67428427 -51.48584823 5.07365348 -23.8125 1.25 C-23.16224854 1.1557373 -22.51199707 1.06147461 -21.84204102 0.96435547 C-14.58721977 0.01958084 -7.30604473 0.0084739 0 0 Z M-75.97607422 23.25585938 C-77.74668645 24.21437214 -79.53134865 25.1467906 -81.31640625 26.078125 C-96.43191905 34.2635449 -109.53051352 45.31460218 -121.8125 57.25 C-122.32603027 57.74306641 -122.83956055 58.23613281 -123.36865234 58.74414062 C-128.43738838 63.61958417 -132.93942818 68.33644303 -136.8125 74.25 C-138.2488549 75.97685364 -139.70876468 77.68429579 -141.1875 79.375 C-151.47208566 91.47232227 -160.19740215 104.79636138 -168.08203125 118.55078125 C-171.38855667 124.29750992 -174.88798162 129.92414015 -178.375 135.5625 C-184.85655523 146.05509012 -191.2804274 156.58066354 -197.65966797 167.13574219 C-200.82269962 172.36387123 -204.00128116 177.5785075 -207.28125 182.734375 C-224.94128426 210.52249179 -239.4732944 240.01912709 -246.8125 272.25 C-246.98894043 272.98686035 -247.16538086 273.7237207 -247.34716797 274.48291016 C-249.97577545 285.84922775 -250.11691406 297.32550205 -250.1875 308.9375 C-250.19955475 310.04319839 -250.19955475 310.04319839 -250.21185303 311.17123413 C-250.51192732 347.46961447 -235.39456101 381.53219235 -210.125 407.375 C-190.52775143 426.76297944 -165.56803701 439.51132854 -139.5625 447.875 C-138.04605908 448.37091538 -136.52978804 448.86735046 -135.01367188 449.36425781 C-129.95373513 451.01528834 -124.88407484 452.63512871 -119.8125 454.25 C-118.8428833 454.55925415 -117.8732666 454.8685083 -116.87426758 455.18713379 C-109.69251982 457.47574352 -102.50425703 459.74306312 -95.3125 462 C-94.31553101 462.31430969 -93.31856201 462.62861938 -92.29138184 462.95245361 C-89.45656924 463.84431728 -86.61938232 464.72814082 -83.78125 465.609375 C-82.93181824 465.87751007 -82.08238647 466.14564514 -81.20721436 466.42190552 C-80.02859833 466.78492264 -80.02859833 466.78492264 -78.82617188 467.15527344 C-77.80324036 467.47404449 -77.80324036 467.47404449 -76.75964355 467.79925537 C-74.49611432 468.40035088 -74.49611432 468.40035088 -70.8125 468.25 C-72.25834312 463.78103036 -74.74285467 460.70387806 -77.8125 457.25 C-81.6154641 452.86595799 -85.30040747 448.43333965 -88.8125 443.8125 C-89.21936035 443.27729736 -89.6262207 442.74209473 -90.04541016 442.19067383 C-90.45581543 441.65079834 -90.8662207 441.11092285 -91.2890625 440.5546875 C-93.43333649 437.73415536 -95.61763207 434.94776076 -97.81713867 432.17016602 C-99.6746211 429.82159079 -101.51817849 427.46226351 -103.36083984 425.10205078 C-104.34878198 423.84161871 -105.34149027 422.58491112 -106.33837891 421.33154297 C-122.40134808 401.09532671 -131.23988787 379.99199272 -131.0625 353.8125 C-131.07410156 352.10610352 -131.07410156 352.10610352 -131.0859375 350.36523438 C-131.06866335 342.79483919 -130.29059209 335.66828793 -128.8125 328.25 C-128.6568457 327.41863525 -128.50119141 326.58727051 -128.34082031 325.73071289 C-122.65875518 296.42400272 -108.02296423 270.85497002 -92.588974 245.703125 C-87.70690758 237.74666422 -82.91933737 229.73746058 -78.16674805 221.70306396 C-71.14185342 209.8273645 -64.08907859 197.97383135 -56.8125 186.25 C-56.3273291 185.46351074 -55.8421582 184.67702148 -55.34228516 183.86669922 C-49.24005375 173.98754029 -43.08750797 164.31849951 -35.8125 155.25 C-35.008125 154.24195313 -34.20375 153.23390625 -33.375 152.1953125 C-28.10320636 145.72090028 -22.4396448 139.67801449 -16.5625 133.75 C-15.57044556 132.74404785 -15.57044556 132.74404785 -14.55834961 131.71777344 C-10.56019256 127.74515892 -6.48830525 124.39950613 -1.8125 121.25 C4.7134087 124.85704772 9.82075513 130.15367898 15.1875 135.25 C16.59322266 136.57451172 16.59322266 136.57451172 18.02734375 137.92578125 C34.40736941 153.78879031 46.3263486 173.19631237 57.8828125 192.6953125 C61.26917786 198.40683037 64.72400014 204.0757121 68.18051147 209.7449646 C76.90158812 224.05628995 85.49421915 238.44253429 94.00979614 252.87701416 C96.14977137 256.50262072 98.30674176 260.11713304 100.48046875 263.72265625 C120.62745026 297.38444706 135.8745055 339.3594939 126.1640625 378.97265625 C119.55386711 401.15647197 107.29513144 416.8670082 92.85986328 434.50390625 C88.26464913 440.1235312 83.82653426 445.84654865 79.43310547 451.625 C78.08391698 453.385133 76.71745275 455.13086358 75.34765625 456.875 C74.88190186 457.47094971 74.41614746 458.06689941 73.9362793 458.6809082 C73.03905771 459.8281464 72.13832411 460.97264897 71.23364258 462.11401367 C68.89193507 464.85669191 68.89193507 464.85669191 68.1875 468.25 C74.29180637 467.61361141 79.80895739 465.91714932 85.625 464 C87.59884655 463.36033204 89.57280557 462.72101105 91.546875 462.08203125 C92.51044922 461.76830566 93.47402344 461.45458008 94.46679688 461.13134766 C98.09454943 459.95616938 101.73304185 458.81771446 105.375 457.6875 C106.65889498 457.28658901 107.94274889 456.88554648 109.2265625 456.484375 C111.26452018 455.84834405 113.30303888 455.21429655 115.34277344 454.58398438 C144.02702385 445.80391286 144.02702385 445.80391286 171.1875 433.25 C171.79384277 432.92531738 172.40018555 432.60063477 173.02490234 432.26611328 C205.32691882 414.95623035 228.55718 387.61908486 241 353.3125 C241.27803467 352.56331299 241.55606934 351.81412598 241.8425293 351.04223633 C246.58909689 337.31403581 247.7221998 323.2812284 247.5625 308.875 C247.55502243 307.72913422 247.55502243 307.72913422 247.5473938 306.56011963 C247.45843226 294.89536086 246.96784529 283.61629413 244.1875 272.25 C243.96707031 271.32171387 243.74664063 270.39342773 243.51953125 269.43701172 C235.94185492 238.28935407 221.86461273 210.24823354 205.00634766 183.18212891 C202.00990722 178.3516256 199.07156894 173.48601798 196.125 168.625 C191.15667108 160.45238891 186.14063675 152.31059304 181.0949707 144.18554688 C176.38710711 136.59559589 171.74253619 128.96783952 167.11914062 121.32617188 C161.43978816 111.95962981 155.64628988 102.69050293 149.3125 93.75 C148.80074219 93.02659424 148.28898437 92.30318848 147.76171875 91.55786133 C140.52949767 81.42055249 140.52949767 81.42055249 132.125 72.26953125 C130.1875 70.25 130.1875 70.25 128.89453125 67.9765625 C126.40901964 64.00656913 123.19026189 60.91292758 119.875 57.625 C119.16005371 56.91569336 118.44510742 56.20638672 117.70849609 55.47558594 C111.24954775 49.16112348 104.51811986 43.51654729 97.1875 38.25 C96.53120605 37.77111328 95.87491211 37.29222656 95.19873047 36.79882812 C70.68638774 19.07850704 39.87643458 5.34262347 9.18359375 5.01171875 C8.4316272 5.00187958 7.67966064 4.99204041 6.90490723 4.98190308 C-23.09455606 4.67042185 -49.29033011 8.8042475 -75.97607422 23.25585938 Z " fill="#020202" transform="translate(758.8125,66.75)"/>
<path d="M0 0 C4.55181383 4.12833031 8.74567413 8.56269237 13 13 C13.33 5.41 13.66 -2.18 14 -10 C20.93 -10 27.86 -10 35 -10 C35 40.16 35 90.32 35 142 C28.07 142 21.14 142 14 142 C13.67 134.74 13.34 127.48 13 120 C11.80375 121.299375 10.6075 122.59875 9.375 123.9375 C-5.44126256 138.73046655 -24.6879789 146.19761889 -45.5 146.375 C-66.85200585 146.12977073 -85.10006166 138.3662536 -100.6875 123.6875 C-114.51195801 109.03819366 -123.18900176 90.20443443 -124 70 C-124.03996094 69.31292969 -124.07992187 68.62585938 -124.12109375 67.91796875 C-124.83873579 45.16449469 -116.03517654 25.67315512 -101 9 C-75.29009709 -17.884467 -29.95943007 -23.08219942 0 0 Z M-80 19 C-80.59167969 19.40347656 -81.18335938 19.80695312 -81.79296875 20.22265625 C-92.08768692 27.92602659 -99.00577958 42.61693724 -101.609375 54.8671875 C-103.84078788 72.76311877 -100.58334557 88.97050224 -89.75 103.6875 C-78.92510427 116.76264758 -65.18844851 124.84082874 -48.25 126.8125 C-32.56638414 127.71270754 -16.90349875 123.04499132 -4.8828125 112.73828125 C-4.26148438 112.16464844 -3.64015625 111.59101562 -3 111 C-2.37867188 110.45730469 -1.75734375 109.91460938 -1.1171875 109.35546875 C8.03701873 100.89476299 14.32107716 88.09846285 15.16113281 75.60327148 C15.50779942 55.1116473 13.04839191 38.73302982 -1.53369141 23.18554688 C-12.4140477 12.2722309 -26.39506721 6.70535821 -41.6796875 5.96875 C-56.18856491 6.10530414 -68.42042664 10.34342574 -80 19 Z " fill="#515152" transform="translate(1039,654)"/>
<path d="M0 0 C3.70516897 3.18528496 6.66556367 6.45695459 9.75 10.3125 C10.08 2.7225 10.41 -4.8675 10.75 -12.6875 C17.68 -12.6875 24.61 -12.6875 31.75 -12.6875 C31.75 37.4725 31.75 87.6325 31.75 139.3125 C24.82 139.3125 17.89 139.3125 10.75 139.3125 C10.42 132.0525 10.09 124.7925 9.75 117.3125 C8.38875 118.776875 7.0275 120.24125 5.625 121.75 C-9.12904723 136.44161825 -27.34537074 143.39560218 -48.0625 143.625 C-66.73605614 143.54030091 -82.65441346 138.05607538 -97.25 126.3125 C-98.16458984 125.64347656 -98.16458984 125.64347656 -99.09765625 124.9609375 C-112.91067862 114.31544035 -121.78869612 97.11313652 -125.25 80.3125 C-125.43175781 79.44367188 -125.61351563 78.57484375 -125.80078125 77.6796875 C-128.6768197 56.12190367 -125.54146251 35.45398346 -113.25 17.3125 C-109.92346316 12.97040701 -106.14128299 9.14410073 -102.25 5.3125 C-101.36054687 4.31863281 -101.36054687 4.31863281 -100.453125 3.3046875 C-75.30699456 -24.45564462 -27.22666418 -23.03614579 0 0 Z M-88.375 20.9375 C-100.68192673 33.8423341 -105.6948823 49.73376744 -105.5234375 67.23828125 C-104.71499973 84.00335955 -96.47521304 99.12696783 -84.25 110.3125 C-70.81219406 120.71596266 -54.96200278 125.70500366 -38.0625 123.75 C-26.67264796 121.70267733 -17.32756519 117.4188421 -8.25 110.3125 C-7.198125 109.549375 -6.14625 108.78625 -5.0625 108 C6.6834973 96.77604702 11.79659023 81.94243606 12.7109375 66.09375 C12.90437799 47.36871041 6.57660558 32.68497715 -6 19.0625 C-29.6305675 -3.41648039 -65.38610078 -0.26585365 -88.375 20.9375 Z " fill="#515152" transform="translate(200.25,656.6875)"/>
<path d="M0 0 C16.15866271 14.92432042 24.07469506 35.84005319 25.12109375 57.48046875 C25.14386811 80.52811769 17.36259998 101.07470701 1.1328125 117.5234375 C-15.2589457 133.58736054 -34.50503477 139.72574589 -57.09277344 139.67797852 C-74.69762842 139.43230697 -91.60542065 134.28525434 -104.875 122.43359375 C-105.535 121.91410156 -106.195 121.39460937 -106.875 120.859375 C-122.23191466 108.47186376 -131.56354289 88.74933532 -133.875 69.43359375 C-135.30451947 45.76526851 -130.15104629 23.95349413 -114.40869141 5.73681641 C-83.58168606 -28.59657818 -34.39104133 -28.73084911 0 0 Z M-90.875 13.43359375 C-91.85597656 14.20703125 -92.83695313 14.98046875 -93.84765625 15.77734375 C-103.63073103 23.94633441 -109.69454182 37.09570026 -111.875 49.43359375 C-113.39965016 67.87800085 -111.0904943 83.31363999 -99.875 98.43359375 C-99.1325 99.48546875 -98.39 100.53734375 -97.625 101.62109375 C-85.88043005 113.63258574 -70.61323379 120.2199968 -53.875 120.43359375 C-36.58025182 119.59313623 -23.1988528 113.14126024 -11.25 100.87109375 C0.04965538 87.83302985 4.46311058 71.49705909 3.33642578 54.50390625 C1.52006733 36.71785583 -6.8965847 22.77292994 -20.38671875 11.296875 C-42.05271267 -4.78689827 -70.48159391 -4.19587085 -90.875 13.43359375 Z " fill="#515152" transform="translate(690.875,660.56640625)"/>
<path d="M0 0 C14.98528192 11.58260888 22.03075334 25.30300182 24.71980286 43.79925537 C26.20653549 55.47645814 26.13010553 67.11167772 26.09765625 78.859375 C26.09578772 80.86004602 26.09436587 82.86071751 26.09336853 84.86138916 C26.08957761 90.08912452 26.07977714 95.31683143 26.06866455 100.54455566 C26.05837622 105.8942832 26.05385511 111.24401539 26.04882812 116.59375 C26.03815132 127.06251441 26.02058284 137.53125037 26 148 C19.07 148 12.14 148 5 148 C4.97494385 145.68653564 4.9498877 143.37307129 4.92407227 140.98950195 C4.83977264 133.25827388 4.75120618 125.52709866 4.66066074 117.79594135 C4.60600727 113.11861912 4.55269437 108.4412904 4.50268555 103.76391602 C4.30628819 79.56061967 4.30628819 79.56061967 3.54296875 55.37109375 C3.49046715 54.19731926 3.49046715 54.19731926 3.43690491 52.99983215 C2.88323589 42.72323058 0.75627501 33.64349182 -5 25 C-5.5775 24.0925 -6.155 23.185 -6.75 22.25 C-14.60398738 14.39601262 -25.24715333 12.11744614 -36 12 C-48.28114511 12.97690927 -57.76123696 16.93770866 -67 25 C-67.60585938 25.47695313 -68.21171875 25.95390625 -68.8359375 26.4453125 C-80.06128716 36.14685904 -83.72547403 51.91066549 -85 66 C-85.14223803 68.85003451 -85.18296157 71.69582369 -85.20532227 74.54907227 C-85.22017166 75.7507328 -85.22017166 75.7507328 -85.23532104 76.97666931 C-85.26657587 79.58988626 -85.29154887 82.20312131 -85.31640625 84.81640625 C-85.337007 86.64200782 -85.35800423 88.46760496 -85.37937927 90.29319763 C-85.43427789 95.07211694 -85.48382769 99.85107696 -85.53222656 104.63006592 C-85.58267847 109.51708553 -85.63824023 114.40404682 -85.69335938 119.29101562 C-85.80054631 128.86062887 -85.90160416 138.43029232 -86 148 C-92.93 148 -99.86 148 -107 148 C-107 97.84 -107 47.68 -107 -4 C-100.07 -4 -93.14 -4 -86 -4 C-85.67 3.59 -85.34 11.18 -85 19 C-82.69 16.36 -80.38 13.72 -78 11 C-57.87352818 -8.77337582 -24.76868241 -15.93121653 0 0 Z " fill="#515152" transform="translate(857,648)"/>
<path d="M0 0 C4.44342229 4.10655634 8.49651939 8.76718676 11.25 14.1875 C9.91570459 18.19038624 7.38368549 19.30579199 3.9375 21.375 C3.35548828 21.74302734 2.77347656 22.11105469 2.17382812 22.49023438 C-1.16885808 24.53067363 -2.72839125 25.1875 -6.75 25.1875 C-8.3203125 23.71875 -8.3203125 23.71875 -9.875 21.6875 C-21.30306848 8.01247514 -36.49164817 2.04073141 -53.875 0.4375 C-72.19203611 -0.55161995 -88.77116894 4.23683081 -102.96484375 16.02734375 C-113.43140289 25.85104321 -120.41408057 39.34768071 -120.98828125 53.77734375 C-121.38999343 73.00368512 -117.55047326 88.74554822 -103.88671875 103.1640625 C-90.78023338 115.5756885 -73.39455541 120.41911035 -55.63916016 120.15625 C-36.54773127 119.286192 -21.09575948 110.43234637 -7.75 97.1875 C-6.76 95.7025 -6.76 95.7025 -5.75 94.1875 C-1.53345644 95.67385116 1.87478605 97.79999159 5.5625 100.3125 C6.63113281 101.03695312 7.69976563 101.76140625 8.80078125 102.5078125 C9.60902344 103.06210937 10.41726563 103.61640625 11.25 104.1875 C10.14240905 111.83515176 1.28517185 118.69310698 -4.4140625 123.46875 C-25.42632304 138.92927615 -51.668681 143.2678811 -77.23022461 139.41601562 C-99.11582164 135.46312246 -117.76037518 123.33849842 -130.71484375 105.2890625 C-137.68151742 94.67190532 -143.23243169 82.04044647 -143.75 69.1875 C-143.8015625 68.02734375 -143.853125 66.8671875 -143.90625 65.671875 C-144.62006573 41.75609835 -136.43913222 21.05209642 -120.22851562 3.48681641 C-89.25992573 -28.24655937 -33.04027057 -27.59834365 0 0 Z " fill="#515152" transform="translate(1252.75,659.8125)"/>
<path d="M0 0 C10.65677708 9.21581614 10.65677708 9.21581614 13.31640625 14.8359375 C13.35546875 16.796875 13.35546875 16.796875 12.31640625 18.8359375 C10.22140576 20.4634344 8.26600961 21.80492986 6.00390625 23.1484375 C5.42189453 23.52033203 4.83988281 23.89222656 4.24023438 24.27539062 C1.78724303 25.76718717 -0.03216007 26.85952389 -2.94921875 26.75390625 C-4.68359375 25.8359375 -4.68359375 25.8359375 -7.12109375 22.8359375 C-16.63400857 11.19040449 -32.59287519 4.10344819 -47.23828125 2.4296875 C-65.61799649 0.73261362 -83.03457821 4.08510849 -97.68359375 15.8359375 C-98.3178125 16.30773437 -98.95203125 16.77953125 -99.60546875 17.265625 C-110.21630475 25.57588152 -116.5161477 38.74413443 -118.68359375 51.8359375 C-120.4480511 70.02057145 -116.35679445 87.05579383 -104.93359375 101.6484375 C-93.10753826 114.29008302 -76.24396184 120.88285717 -59.19921875 121.83203125 C-39.26089789 121.85418494 -22.25917249 115.418132 -7.93359375 101.3984375 C-6.15369003 99.5474872 -4.83011816 98.12898631 -3.68359375 95.8359375 C-2.69359375 95.8359375 -1.70359375 95.8359375 -0.68359375 95.8359375 C-0.68359375 96.4959375 -0.68359375 97.1559375 -0.68359375 97.8359375 C0.04214844 98.10148438 0.76789063 98.36703125 1.515625 98.640625 C4.31811553 99.83666698 6.62119977 101.23922857 9.12890625 102.9609375 C9.91910156 103.49976563 10.70929688 104.03859375 11.5234375 104.59375 C12.11511719 105.00367188 12.70679688 105.41359375 13.31640625 105.8359375 C12.03122826 114.064913 3.72347116 120.82009105 -2.49609375 125.6484375 C-23.62587431 140.62650979 -49.7746665 144.88796091 -75.16357422 141.06469727 C-96.46374808 137.21536427 -115.50555791 125.27395701 -128.1015625 107.5703125 C-140.17168609 88.81972651 -143.73723737 67.3297805 -140.06640625 45.3671875 C-136.91430395 32.31246292 -130.4532191 19.96485478 -121.68359375 9.8359375 C-120.96171875 8.8459375 -120.23984375 7.8559375 -119.49609375 6.8359375 C-91.07963051 -26.34715828 -32.4103619 -26.1358668 0 0 Z " fill="#515152" transform="translate(1433.68359375,658.1640625)"/>
<path d="M0 0 C3.83437712 2.79762884 7.44462193 5.85787229 11 9 C10.58685438 13.44926052 7.49538473 15.84100104 4.4375 18.75 C3.91736328 19.25660156 3.39722656 19.76320313 2.86132812 20.28515625 C1.58089916 21.53034405 0.29132446 22.76611502 -1 24 C-4.67999518 22.70268931 -7.23734575 21.16002936 -10.1875 18.625 C-17.36742895 12.90013971 -25.93690203 9.31330992 -35.25 10.21875 C-41.48926193 11.31483655 -46.49705356 13.60843352 -50.3203125 18.7890625 C-53.1375797 23.73405598 -53.93689792 28.38847457 -53 34 C-50.34523756 43.30045915 -42.44206349 48.74385574 -34.4140625 53.30639648 C-31.64533149 54.84225984 -28.86653055 56.35880828 -26.08300781 57.86767578 C-10.94928596 66.09437549 3.73031113 74.99125413 10.09765625 91.91796875 C13.72126945 104.29472551 11.99976768 117.01919756 5.9375 128.3125 C-0.67770078 138.73561047 -10.20723651 146.01080461 -22.125 149.3125 C-38.73036795 152.36366302 -54.89404098 149.26759729 -69 140 C-78.0601384 133.01344334 -78.0601384 133.01344334 -79.9609375 128.94140625 C-80 127 -80 127 -78.7421875 125.2890625 C-78.12601562 124.73992187 -77.50984375 124.19078125 -76.875 123.625 C-73.60740219 120.59314071 -70.79343781 117.47063486 -68 114 C-64.92134612 115.37961752 -62.75701256 117.00123131 -60.3125 119.3125 C-52.09272393 126.57860039 -43.496999 130.38509791 -32.328125 129.87890625 C-24.70299733 128.730401 -18.82712925 124.97211023 -13.5625 119.4375 C-9.54313781 113.16729498 -9.25084954 107.29236332 -10 100 C-12.52788737 90.90263288 -19.78239657 86.55965896 -27.5625 82.125 C-30.63476996 80.39859469 -33.72192118 78.69979376 -36.81298828 77.00732422 C-50.8449634 69.30221504 -65.36084471 61.04118636 -71.5 45.4375 C-74.78783791 34.04749011 -74.41836777 21.63191751 -69 11 C-66.51406947 6.66966941 -63.69023646 3.35476042 -60 0 C-59.45859375 -0.49628906 -58.9171875 -0.99257813 -58.359375 -1.50390625 C-41.0451907 -16.01726662 -17.50040041 -11.08288325 0 0 Z " fill="#515152" transform="translate(340,650)"/>
<path d="M0 0 C6.93 0 13.86 0 21 0 C21 18.48 21 36.96 21 56 C31.23 56 41.46 56 52 56 C52 61.94 52 67.88 52 74 C41.77 74 31.54 74 21 74 C21 118.22 21 162.44 21 208 C14.07 208 7.14 208 0 208 C0 163.78 0 119.56 0 74 C-8.91 74 -17.82 74 -27 74 C-27 68.06 -27 62.12 -27 56 C-18.09 56 -9.18 56 0 56 C0 37.52 0 19.04 0 0 Z " fill="#515152" transform="translate(401,588)"/>
<path d="M0 0 C-1.52853935 4.27186525 -3.71509481 7.99326863 -6.125 11.8125 C-6.49753906 12.40998047 -6.87007812 13.00746094 -7.25390625 13.62304688 C-8.1657048 15.08426251 -9.08235976 16.54244585 -10 18 C-10.76183594 17.83242188 -11.52367187 17.66484375 -12.30859375 17.4921875 C-22.23285209 15.53459347 -28.18257392 15.83769073 -36.6875 21.5 C-48.01204329 30.26228628 -52.50625274 44.46072892 -54.28697205 58.21687317 C-55.24834624 67.6085006 -55.22837618 77.01845596 -55.31640625 86.44921875 C-55.33701561 88.31680214 -55.35801301 90.18438129 -55.37937927 92.05195618 C-55.4341892 96.93277516 -55.48377707 101.81363333 -55.53222656 106.69451904 C-55.58274438 111.688959 -55.63827129 116.6833431 -55.69335938 121.67773438 C-55.80043736 131.45177666 -55.90152725 141.22586723 -56 151 C-63.26 151 -70.52 151 -78 151 C-78 100.84 -78 50.68 -78 -1 C-70.74 -1 -63.48 -1 -56 -1 C-55.505 7.415 -55.505 7.415 -55 16 C-53.68 14.47375 -52.36 12.9475 -51 11.375 C-38.1222354 -2.87102709 -17.84602091 -11.89734727 0 0 Z " fill="#515152" transform="translate(551,645)"/>
<path d="M0 0 C7.26 0 14.52 0 22 0 C22 50.16 22 100.32 22 152 C14.74 152 7.48 152 0 152 C0 101.84 0 51.68 0 0 Z " fill="#515152" transform="translate(1479,644)"/>
<path d="M0 0 C8.085 -0.0825 16.17 -0.165 24.5 -0.25 C27.03751953 -0.28641602 29.57503906 -0.32283203 32.18945312 -0.36035156 C34.2200435 -0.37204341 36.2506433 -0.38223406 38.28125 -0.390625 C39.83924316 -0.4213208 39.83924316 -0.4213208 41.42871094 -0.45263672 C47.7786986 -0.4556634 52.7507558 0.22234821 58 4 C64.46802363 11.48929052 64.59733787 20.56968717 64 30 C63.28498428 36.02224509 61.17008622 39.72566162 57 44 C56.01 44.495 56.01 44.495 55 45 C55.78375 45.5775 56.5675 46.155 57.375 46.75 C61.65591884 50.41935901 62.22250921 53.5282174 63 59 C63.07651913 60.94407952 63.10811623 62.89038078 63.09765625 64.8359375 C63.09443359 65.89941406 63.09121094 66.96289062 63.08789062 68.05859375 C63.07532227 69.70021484 63.07532227 69.70021484 63.0625 71.375 C63.05798828 72.49261719 63.05347656 73.61023438 63.04882812 74.76171875 C63.03709258 77.50783566 63.01915866 80.25392485 63 83 C59.37 83 55.74 83 52 83 C51.94392578 80.64875 51.94392578 80.64875 51.88671875 78.25 C51.82102734 76.166644 51.75458112 74.08331171 51.6875 72 C51.65366211 70.45505859 51.65366211 70.45505859 51.61914062 68.87890625 C51.40194507 62.67896034 51.07029022 57.46954795 48 52 C43.22735654 50.21329544 38.82158809 49.71643574 33.75390625 49.5859375 C32.5532251 49.55032715 31.35254395 49.5147168 30.11547852 49.47802734 C28.61299561 49.44402832 27.1105127 49.4100293 25.5625 49.375 C20.756875 49.25125 15.95125 49.1275 11 49 C11 60.22 11 71.44 11 83 C7.37 83 3.74 83 0 83 C0 55.61 0 28.22 0 0 Z M11 9 C11 19.23 11 29.46 11 40 C15.42971461 40.06917426 19.85752753 40.12881128 24.28735352 40.16479492 C25.79165017 40.17980722 27.29590361 40.20022353 28.80004883 40.22631836 C30.97227696 40.26303816 33.14392251 40.27980161 35.31640625 40.29296875 C37.27235718 40.31653442 37.27235718 40.31653442 39.26782227 40.34057617 C44.32287718 39.87928216 48.48750625 38.74968727 51.91796875 34.78125 C53.30414759 31.21821992 53.36212672 28.31743985 53.3125 24.5 C53.30863281 23.2109375 53.30476562 21.921875 53.30078125 20.59375 C52.92423139 16.09471276 52.21078029 13.21078029 49 10 C45.20669027 8.56477012 41.1678718 8.87382 37.171875 8.90234375 C36.42286926 8.9037587 35.67386353 8.90517365 34.90216064 8.90663147 C32.51806588 8.91221341 30.13406622 8.92476255 27.75 8.9375 C26.13020969 8.94251734 24.51041791 8.94707984 22.890625 8.95117188 C18.92701752 8.96132456 14.96361479 8.98090335 11 9 Z " fill="#515152" transform="translate(826,843)"/>
<path d="M0 0 C0.495 0.495 0.495 0.495 1 1 C1.33 0.01 1.66 -0.98 2 -2 C5.3 -2 8.6 -2 12 -2 C12.06959803 7.15358757 12.12286092 16.30708365 12.15543652 25.46087837 C12.17107344 29.71164439 12.19227545 33.962229 12.22631836 38.21289062 C12.25898252 42.31721651 12.27686786 46.42136819 12.28463173 50.52581406 C12.2901626 52.08947363 12.30096312 53.65312398 12.31719017 55.21670914 C12.33905886 57.41177002 12.34196308 59.60611674 12.34057617 61.80126953 C12.34723801 63.04925323 12.35389984 64.29723694 12.36076355 65.58303833 C11.80963808 70.80300745 9.96519126 73.98884725 6.375 77.75 C-0.95119041 83.30718346 -11.28130811 82.64180631 -20 82 C-24.70987125 81.15432194 -28.60914937 80.00836671 -32.5 77.1875 C-35.85312752 72.29752236 -36.23314157 67.82853928 -36 62 C-32.7 62 -29.4 62 -26 62 C-25.64192708 64.01822917 -25.28385417 66.03645833 -24.92578125 68.0546875 C-24.13265673 70.19990644 -24.13265673 70.19990644 -21.8203125 71.23828125 C-15.41476621 72.96831107 -8.46551892 72.9040236 -2.25 70.625 C0.09525245 69.19554027 0.09525245 69.19554027 1 67 C1.07092842 64.7927077 1.08415025 62.58332548 1.0625 60.375 C1.05347656 59.18648437 1.04445313 57.99796875 1.03515625 56.7734375 C1.02355469 55.85820313 1.01195312 54.94296875 1 54 C0.15050781 54.47824219 -0.69898438 54.95648437 -1.57421875 55.44921875 C-8.89651872 58.7638745 -18.35581048 58.95914985 -26.1015625 56.78515625 C-30.84130925 54.82489062 -33.4277087 52.10511424 -35.8125 47.5 C-38.06133428 40.87185685 -38.21455639 34.75501671 -38.25 27.8125 C-38.270625 26.82185547 -38.29125 25.83121094 -38.3125 24.81054688 C-38.36009446 15.73785257 -37.18692205 7.09269872 -30.640625 0.33984375 C-22.78212892 -6.07792805 -8.46538377 -4.14969792 0 0 Z M-25 9 C-30.24285402 17.73809003 -28.48823725 31.87926014 -26.76171875 41.41796875 C-26.12797452 44.23712461 -26.12797452 44.23712461 -23.625 46.6875 C-18.36273736 49.31863132 -12.79002483 50.02270511 -7.03125 48.46875 C-3.31300847 47.01926601 -0.87620091 45.54393505 1 42 C2.22759602 36.8692506 2.22083835 31.87409756 2.25 26.625 C2.270625 25.70460938 2.29125 24.78421875 2.3125 23.8359375 C2.34527641 18.10006527 1.79372509 14.04737445 -1 9 C-7.25384424 4.0289956 -18.68724097 4.18236811 -25 9 Z " fill="#515152" transform="translate(666,869)"/>
<path d="M0 0 C3.3 0 6.6 0 10 0 C10 27.39 10 54.78 10 83 C6.7 83 3.4 83 0 83 C-0.33 81.68 -0.66 80.36 -1 79 C-1.474375 79.45375 -1.94875 79.9075 -2.4375 80.375 C-9.86651305 85.08608145 -18.61681148 84.33821347 -27 83 C-31.7836437 81.32152853 -34.25897372 79.25331664 -37 75 C-39.44093238 69.32483222 -40.56413319 64.46476689 -40.8125 58.3125 C-40.84819092 57.53084473 -40.88388184 56.74918945 -40.9206543 55.94384766 C-41.23464956 46.50466696 -40.94249523 35.83328917 -35 28 C-27.48492061 21.893998 -19.26727695 22.42686652 -10 23 C-6.78214864 23.75144667 -3.40710878 24.59289122 -1 27 C-0.67 18.09 -0.34 9.18 0 0 Z M-27 35 C-29.85004728 41.11601056 -30.46676947 46.24342665 -30.375 52.9375 C-30.38660156 53.77990234 -30.39820313 54.62230469 -30.41015625 55.49023438 C-30.38347052 61.26769569 -29.70907926 66.81062056 -27 72 C-21.98612375 75.30915833 -16.84371225 75.75369434 -11 75 C-7.29705644 74.07783838 -4.65619626 72.7655623 -2.125 69.8125 C1.53491805 60.66270486 1.87039618 46.14282363 -2 37 C-6.06262081 32.83320943 -9.62114899 31.84446226 -15.3125 31.75 C-19.95533075 31.82359837 -23.25619872 32.00495898 -27 35 Z " fill="#515152" transform="translate(522,843)"/>
<path d="M0 0 C0.79921875 -0.01611328 1.5984375 -0.03222656 2.421875 -0.04882812 C9.49295619 -0.05454906 15.77022139 1.24734101 21.5625 5.4375 C26.18144071 11.87602341 25.90871146 19.94071082 25.8203125 27.59765625 C25.8174826 28.53935165 25.81465271 29.48104706 25.81173706 30.45127869 C25.80064207 33.42598791 25.77555802 36.40038351 25.75 39.375 C25.73995637 41.40559458 25.73083296 43.43619392 25.72265625 45.46679688 C25.70073784 50.41548336 25.666283 55.36393871 25.625 60.3125 C21.995 60.3125 18.365 60.3125 14.625 60.3125 C14.625 59.3225 14.625 58.3325 14.625 57.3125 C13.59375 57.786875 12.5625 58.26125 11.5 58.75 C2.75835381 62.46388576 -6.42181845 62.02246683 -15.375 59.3125 C-19.23816444 57.68138613 -21.67313151 55.50015083 -23.64453125 51.734375 C-25.62964262 45.15272233 -25.92745972 36.31061408 -22.75 30.0625 C-19.24317902 26.00197044 -15.51582009 24.42092051 -10.375 23.3125 C6.94975736 22.39322716 6.94975736 22.39322716 14.625 26.3125 C14.53791962 24.20755699 14.42974307 22.10347858 14.3125 20 C14.25449219 18.82824219 14.19648438 17.65648437 14.13671875 16.44921875 C13.8510008 13.39497377 13.8510008 13.39497377 12.43359375 11.44921875 C7.78570196 8.52797359 1.1638098 8.93678533 -4.09375 9.71484375 C-6.44591822 10.36016263 -8.32267863 10.99415233 -10.375 12.3125 C-12.05536511 15.34134844 -12.05536511 15.34134844 -12.375 18.3125 C-15.675 18.3125 -18.975 18.3125 -22.375 18.3125 C-21.97321429 8.40178571 -21.97321429 8.40178571 -19.25 4.8125 C-13.61515997 -0.08736089 -7.14734991 -0.02854373 0 0 Z M-13.375 34.3125 C-14.29850727 37.08302181 -14.53829585 38.87938758 -14.5625 41.75 C-14.57667969 42.51183594 -14.59085937 43.27367187 -14.60546875 44.05859375 C-14.34571726 46.59887528 -13.74555963 48.16544583 -12.375 50.3125 C-5.87491577 53.56254212 1.74607968 53.0941041 8.5625 51.0625 C11.08198748 50.10099948 12.61450775 49.32140251 14.6875 47.5625 C16.43663412 43.36457811 16.10504832 39.75264495 14.6875 35.5 C10.81141956 31.3890056 5.05862999 31.26133691 -0.375 31 C-4.86944606 31.12660411 -9.3955785 32.19652752 -13.375 34.3125 Z " fill="#515152" transform="translate(444.375,865.6875)"/>
<path d="M0 0 C1.13332764 -0.00845947 1.13332764 -0.00845947 2.28955078 -0.01708984 C8.49162369 0.06247578 14.29060988 0.78318571 19.75 3.9375 C25.3770073 10.04682221 25.3564826 17.30347665 25.23046875 25.15625 C25.22622391 26.16594849 25.22197906 27.17564697 25.21760559 28.21594238 C25.20092214 31.41507557 25.16328903 34.61355983 25.125 37.8125 C25.10993982 39.99217835 25.09625375 42.17186665 25.08398438 44.3515625 C25.05105245 49.67212193 24.99934181 54.99220125 24.9375 60.3125 C21.6375 60.3125 18.3375 60.3125 14.9375 60.3125 C14.6075 59.3225 14.2775 58.3325 13.9375 57.3125 C13.08671875 57.79074219 12.2359375 58.26898437 11.359375 58.76171875 C3.78718813 62.19340618 -5.83631611 62.13093116 -13.87109375 60.171875 C-18.52023708 58.34868154 -21.99257961 55.44876245 -24.23046875 50.98046875 C-26.05146087 45.14132499 -26.08293762 38.04442449 -23.8125 32.3125 C-21.25552328 27.92911134 -19.6139539 25.90921304 -14.8125 24.0625 C-10.5777231 23.16928905 -6.31299258 23.10406624 -2 23.0625 C-1.32743164 23.0531543 -0.65486328 23.04380859 0.03808594 23.03417969 C4.23685817 23.06087115 10.73315308 23.10815308 13.9375 26.3125 C14.54974921 18.42484613 14.54974921 18.42484613 11.9375 11.3125 C5.89294126 8.42162408 -0.58472638 9.17957485 -7.0625 10.3125 C-9.33227489 11.05801298 -9.33227489 11.05801298 -11.0625 12.3125 C-12.35481642 15.35449472 -12.35481642 15.35449472 -13.0625 18.3125 C-16.3625 18.3125 -19.6625 18.3125 -23.0625 18.3125 C-22.69434729 12.23798023 -22.43103838 7.8994653 -18.0625 3.3125 C-12.61059361 -0.1308093 -6.23642065 0.04457315 0 0 Z M-14.0625 35.3125 C-15.30141396 40.57788434 -14.94676373 44.25473947 -13.0625 49.3125 C-9.71848245 52.65651755 -5.79350747 52.40895597 -1.25 52.5625 C4.27825435 52.50474212 9.13437824 51.46177581 13.62890625 48.015625 C15.85705973 45.11569988 15.4648055 42.22643505 15.3515625 38.6953125 C15.09981551 36.07614298 15.09981551 36.07614298 12.8125 33.75 C5.61111815 30.14930908 -7.8834179 29.1334179 -14.0625 35.3125 Z " fill="#515152" transform="translate(1102.0625,865.6875)"/>
<path d="M0 0 C4.88675691 4.64241907 5.91092594 9.46555566 7 16 C7 20.62 7 25.24 7 30 C-6.53 30 -20.06 30 -34 30 C-33.01 34.95 -32.02 39.9 -31 45 C-24.97557984 49.0162801 -16.71305799 48.93287723 -9.73046875 47.55078125 C-8.13553727 47.0927663 -6.56350418 46.5559126 -5 46 C-4.34 43.36 -3.68 40.72 -3 38 C0.3 38 3.6 38 7 38 C7.33396643 44.45668439 6.68162551 48.42449931 2.6875 53.75 C-5.38171672 59.72719757 -18.68524592 58.54025643 -28.125 57.375 C-33.78310621 56.35740692 -37.38551035 54.4958004 -41 50 C-44.77186193 43.14206922 -44.2126066 34.85955707 -44.25 27.25 C-44.270625 26.21617187 -44.29125 25.18234375 -44.3125 24.1171875 C-44.35259422 16.15848564 -43.6463025 8.65812404 -38.875 2.0625 C-28.78649625 -5.17490486 -11.04536207 -5.73992936 0 0 Z M-30 8 C-33.9220678 12.51078576 -33.9220678 12.51078576 -34 22 C-23.77 22 -13.54 22 -3 22 C-2.97867851 11.96255933 -2.97867851 11.96255933 -5.875 8.375 C-9.8454276 5.80589979 -13.24815951 5.83695476 -17.875 5.8125 C-19.69644531 5.79123047 -19.69644531 5.79123047 -21.5546875 5.76953125 C-24.92897578 5.99524895 -27.05505811 6.37361223 -30 8 Z " fill="#515152" transform="translate(943,869)"/>
<path d="M0 0 C5.41582442 4.46240342 5.7229752 9.23176854 7 16 C7 20.62 7 25.24 7 30 C-6.53 30 -20.06 30 -34 30 C-32.78422893 40.92168522 -32.78422893 40.92168522 -30 46 C-22.04727206 49.38413955 -13.0317596 48.85573675 -5 46 C-4.34 43.36 -3.68 40.72 -3 38 C0.3 38 3.6 38 7 38 C7.33396643 44.45668439 6.68162551 48.42449931 2.6875 53.75 C-4.51037352 59.08175816 -16.28625045 58.69162305 -24.83984375 57.65625 C-31.38276867 56.60235605 -35.86948114 55.6174946 -40.1875 50.3125 C-44.26730917 42.85629704 -44.33844913 35.43910144 -44.3125 27.125 C-44.32861328 26.10019531 -44.34472656 25.07539062 -44.36132812 24.01953125 C-44.36634965 16.11564845 -43.60999107 8.60792884 -38.875 2.0625 C-28.84570608 -5.13242825 -10.9802515 -5.80415661 0 0 Z M-31 9 C-33.67082039 13.59628479 -33.67082039 13.59628479 -33 22 C-23.1 22 -13.2 22 -3 22 C-2.97867851 11.96255933 -2.97867851 11.96255933 -5.875 8.375 C-9.81042969 5.82854549 -13.22339492 5.80864671 -17.8125 5.75 C-19.01519531 5.72421875 -20.21789063 5.6984375 -21.45703125 5.671875 C-25.37400222 6.03463747 -27.70822446 6.86635279 -31 9 Z " fill="#515152" transform="translate(1061,869)"/>
<path d="M0 0 C3.3 0 6.6 0 10 0 C10.33 8.91 10.66 17.82 11 27 C12.65 26.01 14.3 25.02 16 24 C23.11805123 21.4704446 33.42155012 21.7799279 40.31640625 24.87890625 C44.46481979 27.64130692 47.43203596 31.29610787 49 36 C49.08687799 37.54970448 49.1176866 39.10289707 49.11352539 40.6550293 C49.11344986 41.59577805 49.11337433 42.53652679 49.11329651 43.50578308 C49.10813522 44.51836685 49.10297394 45.53095062 49.09765625 46.57421875 C49.0962413 47.61318802 49.09482635 48.65215729 49.09336853 49.72261047 C49.08776656 53.04426948 49.07521372 56.36586133 49.0625 59.6875 C49.05748525 61.93815007 49.0529223 64.18880119 49.04882812 66.43945312 C49.03779648 71.95966133 49.02053051 77.47981928 49 83 C45.7 83 42.4 83 39 83 C38.970271 81.03208496 38.970271 81.03208496 38.93994141 79.02441406 C38.8638625 74.15638045 38.77514836 69.28864484 38.68261719 64.42089844 C38.64433694 62.31418746 38.6094824 60.20741133 38.578125 58.10058594 C38.53245402 55.07202879 38.47446255 52.04391978 38.4140625 49.015625 C38.40251129 48.07382385 38.39096008 47.13202271 38.37905884 46.16168213 C38.35918915 45.28107117 38.33931946 44.40046021 38.31884766 43.49316406 C38.30552399 42.72039124 38.29220032 41.94761841 38.2784729 41.15142822 C37.96140212 38.7018002 37.30669541 37.09007342 36 35 C30.91097674 32.25975671 25.62985201 32.46343053 20 33 C16.66329261 34.17077452 14.8011309 34.93182547 12.6875 37.75 C10.91920422 43.53714983 10.81707635 49.55774867 10.68359375 55.55859375 C10.66281265 56.34774673 10.64203156 57.13689972 10.62062073 57.94996643 C10.55576695 60.44573109 10.49654195 62.94159178 10.4375 65.4375 C10.39425358 67.13998348 10.35063744 68.84245762 10.30664062 70.54492188 C10.20015237 74.69651873 10.09870853 78.84821118 10 83 C6.7 83 3.4 83 0 83 C0 55.61 0 28.22 0 0 Z " fill="#515152" transform="translate(1247,843)"/>
<path d="M0 0 C2.790287 4.01103757 2.7828632 7.02561136 3 11.875 C-0.3 11.875 -3.6 11.875 -7 11.875 C-7.268125 10.905625 -7.53625 9.93625 -7.8125 8.9375 C-8.204375 7.926875 -8.59625 6.91625 -9 5.875 C-12.82785293 4.59904902 -16.4496657 4.69084831 -20.4375 4.6875 C-21.5831543 4.66913086 -21.5831543 4.66913086 -22.75195312 4.65039062 C-23.49251953 4.64845703 -24.23308594 4.64652344 -24.99609375 4.64453125 C-26.00434204 4.63836792 -26.00434204 4.63836792 -27.03295898 4.63208008 C-29.44427974 4.81862546 -29.44427974 4.81862546 -33 6.875 C-33 10.505 -33 14.135 -33 17.875 C-29.75685252 18.68578687 -27.11921976 19.07473394 -23.82421875 19.26953125 C-22.83099609 19.33849609 -21.83777344 19.40746094 -20.81445312 19.47851562 C-18.74223547 19.61700862 -16.66926896 19.74474735 -14.59570312 19.86132812 C-8.32176046 20.31960577 -4.13237843 21.15940804 1 24.875 C4.41702402 29.65883363 5.15627044 35.09299362 5 40.875 C4.03914614 45.67926931 2.82187822 49.64699759 -1 52.875 C-11.95715305 57.46171523 -25.69382936 56.86545815 -37 53.875 C-41.53057147 51.5387224 -43.30875744 49.77070215 -45 44.875 C-45.2322918 41.49666926 -45.13761144 38.26941554 -45 34.875 C-41.7 34.875 -38.4 34.875 -35 34.875 C-34.79375 36.31875 -34.5875 37.7625 -34.375 39.25 C-33.57422005 43.04361163 -33.57422005 43.04361163 -30.625 45.4375 C-22.94064135 46.3649226 -15.28778761 46.79011504 -8 43.875 C-6.4364652 40.74793041 -6.60041513 37.29517557 -7 33.875 C-8.61870594 30.80220901 -8.61870594 30.80220901 -10.87426758 30.20068359 C-12.94238467 29.88382725 -14.92085436 29.71839656 -17.01171875 29.6640625 C-36.89730691 28.97769309 -36.89730691 28.97769309 -42.5 23.375 C-45.54883192 16.26105885 -45.93160653 9.00434342 -43.078125 1.75390625 C-41.29840996 -1.34769859 -39.18727295 -2.62510685 -36 -4.125 C-24.35529279 -6.66691249 -9.97994484 -7.0691276 0 0 Z " fill="#515152" transform="translate(1004,871.125)"/>
<path d="M0 0 C4.65530166 4.04276197 5.14894682 9.16245062 6 15 C6.23288642 18.39387649 6.23579562 21.76352015 6.1953125 25.1640625 C6.1924826 26.08214691 6.18965271 27.00023132 6.18673706 27.94613647 C6.17566399 30.83923136 6.15058467 33.73200086 6.125 36.625 C6.11495352 38.60286007 6.10583061 40.58072506 6.09765625 42.55859375 C6.07576705 47.37251859 6.04132832 52.1862044 6 57 C2.37 57 -1.26 57 -5 57 C-5.00410889 55.59194092 -5.00821777 54.18388184 -5.01245117 52.7331543 C-5.03419804 47.51647164 -5.08844193 42.30054803 -5.15258789 37.08422852 C-5.17580667 34.82518785 -5.19017265 32.56603834 -5.19555664 30.30688477 C-5.20481765 27.06196961 -5.245747 23.81877572 -5.29296875 20.57421875 C-5.2890361 19.56163498 -5.28510345 18.54905121 -5.28105164 17.50578308 C-5.33531961 14.90677674 -5.42371042 12.5348159 -6 10 C-10.07961021 6.33659964 -14.0187157 6.55196154 -19.2734375 6.71484375 C-23.9638959 7.20539312 -27.54048044 8.22924828 -30.65551758 12.00854492 C-32.55797881 16.24149525 -32.47884649 20.08239498 -32.51171875 24.67578125 C-32.52966995 25.6009404 -32.54762115 26.52609955 -32.56611633 27.47929382 C-32.62014079 30.42365003 -32.65408991 33.36784484 -32.6875 36.3125 C-32.72068001 38.31317346 -32.7551703 40.31382565 -32.79101562 42.31445312 C-32.87586284 47.20951884 -32.94271166 52.10453733 -33 57 C-36.63 57 -40.26 57 -44 57 C-44 37.53 -44 18.06 -44 -2 C-40.7 -2 -37.4 -2 -34 -2 C-33.67 -0.68 -33.34 0.64 -33 2 C-32.0925 1.360625 -31.185 0.72125 -30.25 0.0625 C-21.91942622 -5.22421029 -8.53403086 -4.66956405 0 0 Z " fill="#515152" transform="translate(611,869)"/>
<path d="M0 0 C20.79 0 41.58 0 63 0 C63 3.3 63 6.6 63 10 C54.42 10 45.84 10 37 10 C37 33.76 37 57.52 37 82 C33.37 82 29.74 82 26 82 C26 58.24 26 34.48 26 10 C17.42 10 8.84 10 0 10 C0 6.7 0 3.4 0 0 Z " fill="#515152" transform="translate(305,843)"/>
<path d="M0 0 C2.94405558 2.61535035 4.74252259 5.22756777 6 9 C6.12979439 12.00603796 6.04363173 14.98941031 6 18 C2.7 18 -0.6 18 -4 18 C-4.35807292 15.72135417 -4.71614583 13.44270833 -5.07421875 11.1640625 C-5.82578884 8.81796256 -5.82578884 8.81796256 -8.14453125 7.73046875 C-11.51279282 6.86882044 -14.52296667 6.69874041 -18 6.6875 C-19.19625 6.67074219 -20.3925 6.65398438 -21.625 6.63671875 C-25.30751353 7.03310041 -27.16097459 7.63673113 -30 10 C-34.46899677 20.82364619 -32.23711247 34.91430875 -30 46 C-21.72185693 48.49906206 -13.1495681 49.52413756 -5 46 C-4.34 42.37 -3.68 38.74 -3 35 C0.3 35 3.6 35 7 35 C7.39117278 42.13890324 7.37092156 46.24878742 3 52 C-3.2548705 57.51024306 -11.6065889 58.40673966 -19.703125 58.19140625 C-25.77781676 57.68518194 -32.17161784 56.97631472 -37 53 C-43.19066005 45.39433194 -43.34318953 37.00372025 -43.3125 27.625 C-43.32861328 26.64789062 -43.34472656 25.67078125 -43.36132812 24.6640625 C-43.36645963 16.94628449 -42.48391712 9.01695569 -37.875 2.5625 C-29.14929394 -5.21475975 -10.06264335 -6.11917501 0 0 Z " fill="#515152" transform="translate(1230,869)"/>
<path d="M0 0 C3.3 0 6.6 0 10 0 C10 8.25 10 16.5 10 25 C17.92 25 25.84 25 34 25 C34 27.97 34 30.94 34 34 C26.08 34 18.16 34 10 34 C10 41.92 10 49.84 10 58 C6.7 58 3.4 58 0 58 C0 50.08 0 42.16 0 34 C-7.92 34 -15.84 34 -24 34 C-24 31.03 -24 28.06 -24 25 C-16.08 25 -8.16 25 0 25 C0 16.75 0 8.5 0 0 Z " fill="#515152" transform="translate(747,855)"/>
<path d="M0 0 C1.90265625 -0.01546875 1.90265625 -0.01546875 3.84375 -0.03125 C9.04672279 0.7247375 12.23627795 2.81503726 15.375 7 C17.03068405 12.15101705 16.7343789 17.13532748 16.5 22.5 C13.2 22.5 9.9 22.5 6.5 22.5 C6.53255208 20.51432292 6.56510417 18.52864583 6.59765625 16.54296875 C6.58263217 14.29694539 6.58263217 14.29694539 5.5 11.5 C2.1474783 9.29990764 -0.33748646 9.44726934 -4.125 10.1875 C-7.48059432 10.93764139 -9.44876322 11.68399575 -11.5 14.5 C-13.40791842 19.9791052 -13.83241799 24.9406123 -13.9140625 30.71484375 C-13.93342865 31.57058487 -13.9527948 32.42632599 -13.9727478 33.30799866 C-14.03210914 36.01773383 -14.07875366 38.7275125 -14.125 41.4375 C-14.16321985 43.28452284 -14.20227387 45.13152861 -14.2421875 46.97851562 C-14.33777448 51.48553709 -14.42196424 55.99264188 -14.5 60.5 C-17.8 60.5 -21.1 60.5 -24.5 60.5 C-24.5 41.03 -24.5 21.56 -24.5 1.5 C-21.2 1.5 -17.9 1.5 -14.5 1.5 C-14.17 2.49 -13.84 3.48 -13.5 4.5 C-12.6646875 3.8503125 -11.829375 3.200625 -10.96875 2.53125 C-7.35537589 0.13081602 -4.3474294 -0.03534495 0 0 Z " fill="#515152" transform="translate(1165.5,865.5)"/>
<path d="M0 0 C1.92005859 0.00193359 1.92005859 0.00193359 3.87890625 0.00390625 C8.81861848 0.60578118 11.32872407 2.29875715 14.75 5.8125 C17.28455666 11.2571032 16.75317289 16.52740201 16.4375 22.4375 C13.1375 22.4375 9.8375 22.4375 6.4375 22.4375 C6.47005208 20.45182292 6.50260417 18.46614583 6.53515625 16.48046875 C6.52013217 14.23444539 6.52013217 14.23444539 5.4375 11.4375 C1.54170874 9.23703531 -1.07949379 9.38094444 -5.375 10.3125 C-6.35082031 10.51617188 -7.32664062 10.71984375 -8.33203125 10.9296875 C-9.06808594 11.09726562 -9.80414063 11.26484375 -10.5625 11.4375 C-14.57257914 20.93839819 -14.11970365 30.94437927 -14.25 41.0625 C-14.28322698 42.8476805 -14.31772148 44.63283788 -14.35351562 46.41796875 C-14.43780166 50.75768379 -14.50489868 55.0973521 -14.5625 59.4375 C-17.8625 59.4375 -21.1625 59.4375 -24.5625 59.4375 C-24.5625 40.2975 -24.5625 21.1575 -24.5625 1.4375 C-21.2625 1.4375 -17.9625 1.4375 -14.5625 1.4375 C-14.2325 2.4275 -13.9025 3.4175 -13.5625 4.4375 C-12.72847656 3.78652344 -11.89445312 3.13554688 -11.03515625 2.46484375 C-7.39920042 0.04763214 -4.370722 -0.06615624 0 0 Z " fill="#515152" transform="translate(398.5625,865.5625)"/>
<path d="M0 0 C4.51846921 3.04505534 8.13526194 6.71828583 9.875 11.9375 C10.41331595 18.2896282 9.51647114 22.63974682 5.875 27.9375 C1.01460674 32.56080091 -3.05123456 33.30016602 -9.5546875 33.21484375 C-13.71024246 32.766448 -15.78218505 31.47803936 -19.125 28.9375 C-23.265345 23.59863407 -24.57439058 19.67835872 -24.125 12.9375 C-22.32196376 6.89202555 -19.24909223 3.40790792 -14.125 -0.0625 C-9.19058151 -1.70730616 -4.86089501 -1.6527043 0 0 Z " fill="#515152" transform="translate(1497.125,583.0625)"/>
<path d="M0 0 C3.3 0 6.6 0 10 0 C10 19.47 10 38.94 10 59 C6.7 59 3.4 59 0 59 C0 39.53 0 20.06 0 0 Z " fill="#515152" transform="translate(545,867)"/>
<path d="M0 0 C3.3 0 6.6 0 10 0 C10 3.3 10 6.6 10 10 C6.7 10 3.4 10 0 10 C0 6.7 0 3.4 0 0 Z " fill="#515152" transform="translate(545,843)"/>
</svg>
